<?xml version="1.0" encoding="utf-8" ?>
<svg baseProfile="full" height="840.0" version="1.1" width="1188.0" xmlns="http://www.w3.org/2000/svg" xmlns:ev="http://www.w3.org/2001/xml-events" xmlns:xlink="http://www.w3.org/1999/xlink"><defs /><line stroke="lightgrey" x1="41.62162162162162" x2="574.0" y1="41.62162162162162" y2="41.62162162162162" /><line stroke="lightgrey" x1="41.62162162162162" x2="574.0" y1="63.24324324324324" y2="63.24324324324324" /><line stroke="lightgrey" x1="41.62162162162162" x2="574.0" y1="84.86486486486487" y2="84.86486486486487" /><line stroke="lightgrey" x1="41.62162162162162" x2="574.0" y1="106.48648648648648" y2="106.48648648648648" /><line stroke="lightgrey" x1="41.62162162162162" x2="574.0" y1="128.1081081081081" y2="128.1081081081081" /><line stroke="lightgrey" x1="41.62162162162162" x2="574.0" y1="149.7297297297297" y2="149.7297297297297" /><line stroke="lightgrey" x1="41.62162162162162" x2="574.0" y1="171.35135135135133" y2="171.35135135135133" /><line stroke="lightgrey" x1="41.62162162162162" x2="574.0" y1="192.97297297297294" y2="192.97297297297294" /><line stroke="lightgrey" x1="41.62162162162162" x2="574.0" y1="214.59459459459455" y2="214.59459459459455" /><line stroke="lightgrey" x1="41.62162162162162" x2="574.0" y1="236.21621621621617" y2="236.21621621621617" /><line stroke="lightgrey" x1="41.62162162162162" x2="574.0" y1="257.8378378378378" y2="257.8378378378378" /><line stroke="lightgrey" x1="41.62162162162162" x2="574.0" y1="279.4594594594594" y2="279.4594594594594" /><line stroke="lightgrey" x1="41.62162162162162" x2="574.0" y1="301.08108108108104" y2="301.08108108108104" /><line stroke="lightgrey" x1="41.62162162162162" x2="574.0" y1="322.70270270270265" y2="322.70270270270265" /><line stroke="lightgrey" x1="41.62162162162162" x2="574.0" y1="344.32432432432427" y2="344.32432432432427" /><line stroke="lightgrey" x1="41.62162162162162" x2="574.0" y1="365.9459459459459" y2="365.9459459459459" /><line stroke="lightgrey" x1="41.62162162162162" x2="574.0" y1="387.5675675675675" y2="387.5675675675675" /><line stroke="lightgrey" x1="41.62162162162162" x2="574.0" y1="409.1891891891891" y2="409.1891891891891" /><line stroke="lightgrey" x1="41.62162162162162" x2="574.0" y1="430.8108108108107" y2="430.8108108108107" /><line stroke="lightgrey" x1="41.62162162162162" x2="574.0" y1="452.43243243243234" y2="452.43243243243234" /><line stroke="lightgrey" x1="41.62162162162162" x2="574.0" y1="474.05405405405395" y2="474.05405405405395" /><line stroke="lightgrey" x1="41.62162162162162" x2="574.0" y1="495.67567567567556" y2="495.67567567567556" /><line stroke="lightgrey" x1="41.62162162162162" x2="574.0" y1="517.2972972972972" y2="517.2972972972972" /><line stroke="lightgrey" x1="41.62162162162162" x2="574.0" y1="538.9189189189188" y2="538.9189189189188" /><line stroke="lightgrey" x1="41.62162162162162" x2="574.0" y1="560.5405405405405" y2="560.5405405405405" /><line stroke="lightgrey" x1="41.62162162162162" x2="574.0" y1="582.1621621621622" y2="582.1621621621622" /><line stroke="lightgrey" x1="41.62162162162162" x2="574.0" y1="603.7837837837839" y2="603.7837837837839" /><line stroke="lightgrey" x1="41.62162162162162" x2="574.0" y1="625.4054054054055" y2="625.4054054054055" /><line stroke="lightgrey" x1="41.62162162162162" x2="574.0" y1="647.0270270270272" y2="647.0270270270272" /><line stroke="lightgrey" x1="41.62162162162162" x2="574.0" y1="668.6486486486489" y2="668.6486486486489" /><line stroke="lightgrey" x1="41.62162162162162" x2="574.0" y1="690.2702702702705" y2="690.2702702702705" /><line stroke="lightgrey" x1="41.62162162162162" x2="574.0" y1="711.8918918918922" y2="711.8918918918922" /><line stroke="lightgrey" x1="41.62162162162162" x2="574.0" y1="733.5135135135139" y2="733.5135135135139" /><line stroke="lightgrey" x1="41.62162162162162" x2="574.0" y1="755.1351351351356" y2="755.1351351351356" /><line stroke="lightgrey" x1="41.62162162162162" x2="574.0" y1="776.7567567567572" y2="776.7567567567572" /><line stroke="lightgrey" x1="41.62162162162162" x2="574.0" y1="798.3783783783789" y2="798.3783783783789" /><line stroke="lightgrey" x1="41.62162162162162" x2="574.0" y1="820.0000000000006" y2="820.0000000000006" /><rect fill="none" height="86.48648648648648" stroke="black" width="76.05405405405405" x="41.62162162162162" y="41.62162162162162" /><text fill="black" font-family="Helvetica" font-size="15.135135135135133" style="baseline-shift:-33%;text-anchor:end" x="35.5372972972973" y="84.86486486486487">1</text><text fill="black" font-family="Helvetica" font-size="15.135135135135133" style="baseline-shift-33%;text-anchor:middle" x="79.64864864864865" y="30.81081081081081">Sun</text><rect fill="none" height="21.62162162162162" stroke="black" width="50.7027027027027" x="41.62162162162162" y="41.62162162162162" /><text fill="black" font-family="Helvetica" font-size="15.135135135135133" style="baseline-shift:-33%" x="43.1427027027027" y="52.432432432432435">25 Jul</text><rect fill="none" height="86.48648648648648" stroke="black" width="76.05405405405405" x="117.67567567567568" y="41.62162162162162" /><text fill="black" font-family="Helvetica" font-size="15.135135135135133" style="baseline-shift-33%;text-anchor:middle" x="155.7027027027027" y="30.81081081081081">Mon</text><rect fill="none" height="21.62162162162162" stroke="black" width="21.62162162162162" x="117.67567567567568" y="41.62162162162162" /><text fill="black" font-family="Helvetica" font-size="15.135135135135133" style="baseline-shift:-33%" x="119.19675675675676" y="52.432432432432435">26</text><rect fill="none" height="86.48648648648648" stroke="black" width="76.05405405405405" x="193.72972972972974" y="41.62162162162162" /><text fill="black" font-family="Helvetica" font-size="15.135135135135133" style="baseline-shift-33%;text-anchor:middle" x="231.75675675675677" y="30.81081081081081">Tue</text><rect fill="none" height="21.62162162162162" stroke="black" width="21.62162162162162" x="193.72972972972974" y="41.62162162162162" /><text fill="black" font-family="Helvetica" font-size="15.135135135135133" style="baseline-shift:-33%" x="195.25081081081083" y="52.432432432432435">27</text><rect fill="none" height="86.48648648648648" stroke="black" width="76.05405405405405" x="269.7837837837838" y="41.62162162162162" /><text fill="black" font-family="Helvetica" font-size="15.135135135135133" style="baseline-shift-33%;text-anchor:middle" x="307.81081081081084" y="30.81081081081081">Wed</text><rect fill="none" height="21.62162162162162" stroke="black" width="21.62162162162162" x="269.7837837837838" y="41.62162162162162" /><text fill="black" font-family="Helvetica" font-size="15.135135135135133" style="baseline-shift:-33%" x="271.3048648648649" y="52.432432432432435">28</text><rect fill="none" height="86.48648648648648" stroke="black" width="76.05405405405405" x="345.83783783783787" y="41.62162162162162" /><text fill="black" font-family="Helvetica" font-size="15.135135135135133" style="baseline-shift-33%;text-anchor:middle" x="383.8648648648649" y="30.81081081081081">Thu</text><rect fill="none" height="21.62162162162162" stroke="black" width="21.62162162162162" x="345.83783783783787" y="41.62162162162162" /><text fill="black" font-family="Helvetica" font-size="15.135135135135133" style="baseline-shift:-33%" x="347.35891891891896" y="52.432432432432435">29</text><rect fill="none" height="86.48648648648648" stroke="black" width="76.05405405405405" x="421.89189189189193" y="41.62162162162162" /><text fill="black" font-family="Helvetica" font-size="15.135135135135133" style="baseline-shift-33%;text-anchor:middle" x="459.91891891891896" y="30.81081081081081">Fri</text><rect fill="none" height="21.62162162162162" stroke="black" width="21.62162162162162" x="421.89189189189193" y="41.62162162162162" /><text fill="black" font-family="Helvetica" font-size="15.135135135135133" style="baseline-shift:-33%" x="423.412972972973" y="52.432432432432435">30</text><rect fill="none" height="86.48648648648648" stroke="black" width="76.05405405405405" x="497.945945945946" y="41.62162162162162" /><text fill="black" font-family="Helvetica" font-size="15.135135135135133" style="baseline-shift-33%;text-anchor:middle" x="535.972972972973" y="30.81081081081081">Sat</text><rect fill="none" height="21.62162162162162" stroke="black" width="21.62162162162162" x="497.945945945946" y="41.62162162162162" /><text fill="black" font-family="Helvetica" font-size="15.135135135135133" style="baseline-shift:-33%" x="499.4670270270271" y="52.432432432432435">31</text><rect fill="none" height="86.48648648648648" stroke="black" width="76.05405405405405" x="41.62162162162162" y="128.1081081081081" /><text fill="black" font-family="Helvetica" font-size="15.135135135135133" style="baseline-shift:-33%;text-anchor:end" x="35.5372972972973" y="171.35135135135135">2</text><rect fill="none" height="21.62162162162162" stroke="black" width="50.7027027027027" x="41.62162162162162" y="128.1081081081081" /><text fill="black" font-family="Helvetica" font-size="15.135135135135133" style="baseline-shift:-33%" x="43.1427027027027" y="138.9189189189189">1 Aug</text><rect fill="none" height="86.48648648648648" stroke="black" width="76.05405405405405" x="117.67567567567568" y="128.1081081081081" /><rect fill="none" height="21.62162162162162" stroke="black" width="21.62162162162162" x="117.67567567567568" y="128.1081081081081" /><text fill="black" font-family="Helvetica" font-size="15.135135135135133" style="baseline-shift:-33%" x="122.23891891891893" y="138.9189189189189">2</text><rect fill="none" height="86.48648648648648" stroke="black" width="76.05405405405405" x="193.72972972972974" y="128.1081081081081" /><rect fill="none" height="21.62162162162162" stroke="black" width="21.62162162162162" x="193.72972972972974" y="128.1081081081081" /><text fill="black" font-family="Helvetica" font-size="15.135135135135133" style="baseline-shift:-33%" x="198.292972972973" y="138.9189189189189">3</text><rect fill="none" height="86.48648648648648" stroke="black" width="76.05405405405405" x="269.7837837837838" y="128.1081081081081" /><rect fill="none" height="21.62162162162162" stroke="black" width="21.62162162162162" x="269.7837837837838" y="128.1081081081081" /><text fill="black" font-family="Helvetica" font-size="15.135135135135133" style="baseline-shift:-33%" x="274.347027027027" y="138.9189189189189">4</text><rect fill="none" height="86.48648648648648" stroke="black" width="76.05405405405405" x="345.83783783783787" y="128.1081081081081" /><rect fill="none" height="21.62162162162162" stroke="black" width="21.62162162162162" x="345.83783783783787" y="128.1081081081081" /><text fill="black" font-family="Helvetica" font-size="15.135135135135133" style="baseline-shift:-33%" x="350.4010810810811" y="138.9189189189189">5</text><rect fill="none" height="86.48648648648648" stroke="black" width="76.05405405405405" x="421.89189189189193" y="128.1081081081081" /><rect fill="none" height="21.62162162162162" stroke="black" width="21.62162162162162" x="421.89189189189193" y="128.1081081081081" /><text fill="black" font-family="Helvetica" font-size="15.135135135135133" style="baseline-shift:-33%" x="426.45513513513515" y="138.9189189189189">6</text><rect fill="none" height="86.48648648648648" stroke="black" width="76.05405405405405" x="497.945945945946" y="128.1081081081081" /><rect fill="none" height="21.62162162162162" stroke="black" width="21.62162162162162" x="497.945945945946" y="128.1081081081081" /><text fill="black" font-family="Helvetica" font-size="15.135135135135133" style="baseline-shift:-33%" x="502.5091891891892" y="138.9189189189189">7</text><rect fill="none" height="86.48648648648648" stroke="black" width="76.05405405405405" x="41.62162162162162" y="214.59459459459458" /><text fill="black" font-family="Helvetica" font-size="15.135135135135133" style="baseline-shift:-33%;text-anchor:end" x="35.5372972972973" y="257.8378378378378">3</text><rect fill="none" height="21.62162162162162" stroke="black" width="21.62162162162162" x="41.62162162162162" y="214.59459459459458" /><text fill="black" font-family="Helvetica" font-size="15.135135135135133" style="baseline-shift:-33%" x="46.18486486486486" y="225.4054054054054">8</text><rect fill="none" height="86.48648648648648" stroke="black" width="76.05405405405405" x="117.67567567567568" y="214.59459459459458" /><rect fill="none" height="21.62162162162162" stroke="black" width="21.62162162162162" x="117.67567567567568" y="214.59459459459458" /><text fill="black" font-family="Helvetica" font-size="15.135135135135133" style="baseline-shift:-33%" x="122.23891891891893" y="225.4054054054054">9</text><rect fill="none" height="86.48648648648648" stroke="black" width="76.05405405405405" x="193.72972972972974" y="214.59459459459458" /><rect fill="none" height="21.62162162162162" stroke="black" width="21.62162162162162" x="193.72972972972974" y="214.59459459459458" /><text fill="black" font-family="Helvetica" font-size="15.135135135135133" style="baseline-shift:-33%" x="195.25081081081083" y="225.4054054054054">10</text><rect fill="none" height="86.48648648648648" stroke="black" width="76.05405405405405" x="269.7837837837838" y="214.59459459459458" /><rect fill="none" height="21.62162162162162" stroke="black" width="21.62162162162162" x="269.7837837837838" y="214.59459459459458" /><text fill="black" font-family="Helvetica" font-size="15.135135135135133" style="baseline-shift:-33%" x="271.3048648648649" y="225.4054054054054">11</text><rect fill="none" height="86.48648648648648" stroke="black" width="76.05405405405405" x="345.83783783783787" y="214.59459459459458" /><rect fill="none" height="21.62162162162162" stroke="black" width="21.62162162162162" x="345.83783783783787" y="214.59459459459458" /><text fill="black" font-family="Helvetica" font-size="15.135135135135133" style="baseline-shift:-33%" x="347.35891891891896" y="225.4054054054054">12</text><rect fill="none" height="86.48648648648648" stroke="black" width="76.05405405405405" x="421.89189189189193" y="214.59459459459458" /><rect fill="none" height="21.62162162162162" stroke="black" width="21.62162162162162" x="421.89189189189193" y="214.59459459459458" /><text fill="black" font-family="Helvetica" font-size="15.135135135135133" style="baseline-shift:-33%" x="423.412972972973" y="225.4054054054054">13</text><rect fill="none" height="86.48648648648648" stroke="black" width="76.05405405405405" x="497.945945945946" y="214.59459459459458" /><rect fill="none" height="21.62162162162162" stroke="black" width="21.62162162162162" x="497.945945945946" y="214.59459459459458" /><text fill="black" font-family="Helvetica" font-size="15.135135135135133" style="baseline-shift:-33%" x="499.4670270270271" y="225.4054054054054">14</text><rect fill="none" height="86.48648648648648" stroke="black" width="76.05405405405405" x="41.62162162162162" y="301.08108108108104" /><text fill="black" font-family="Helvetica" font-size="15.135135135135133" style="baseline-shift:-33%;text-anchor:end" x="35.5372972972973" y="344.32432432432427">4</text><rect fill="none" height="21.62162162162162" stroke="black" width="21.62162162162162" x="41.62162162162162" y="301.08108108108104" /><text fill="black" font-family="Helvetica" font-size="15.135135135135133" style="baseline-shift:-33%" x="43.1427027027027" y="311.8918918918919">15</text><rect fill="none" height="86.48648648648648" stroke="black" width="76.05405405405405" x="117.67567567567568" y="301.08108108108104" /><rect fill="none" height="21.62162162162162" stroke="black" width="21.62162162162162" x="117.67567567567568" y="301.08108108108104" /><text fill="black" font-family="Helvetica" font-size="15.135135135135133" style="baseline-shift:-33%" x="119.19675675675676" y="311.8918918918919">16</text><rect fill="none" height="86.48648648648648" stroke="black" width="76.05405405405405" x="193.72972972972974" y="301.08108108108104" /><rect fill="none" height="21.62162162162162" stroke="black" width="21.62162162162162" x="193.72972972972974" y="301.08108108108104" /><text fill="black" font-family="Helvetica" font-size="15.135135135135133" style="baseline-shift:-33%" x="195.25081081081083" y="311.8918918918919">17</text><rect fill="none" height="86.48648648648648" stroke="black" width="76.05405405405405" x="269.7837837837838" y="301.08108108108104" /><rect fill="none" height="21.62162162162162" stroke="black" width="21.62162162162162" x="269.7837837837838" y="301.08108108108104" /><text fill="black" font-family="Helvetica" font-size="15.135135135135133" style="baseline-shift:-33%" x="271.3048648648649" y="311.8918918918919">18</text><rect fill="none" height="86.48648648648648" stroke="black" width="76.05405405405405" x="345.83783783783787" y="301.08108108108104" /><rect fill="none" height="21.62162162162162" stroke="black" width="21.62162162162162" x="345.83783783783787" y="301.08108108108104" /><text fill="black" font-family="Helvetica" font-size="15.135135135135133" style="baseline-shift:-33%" x="347.35891891891896" y="311.8918918918919">19</text><rect fill="none" height="86.48648648648648" stroke="black" width="76.05405405405405" x="421.89189189189193" y="301.08108108108104" /><rect fill="none" height="21.62162162162162" stroke="black" width="21.62162162162162" x="421.89189189189193" y="301.08108108108104" /><text fill="black" font-family="Helvetica" font-size="15.135135135135133" style="baseline-shift:-33%" x="423.412972972973" y="311.8918918918919">20</text><rect fill="none" height="86.48648648648648" stroke="black" width="76.05405405405405" x="497.945945945946" y="301.08108108108104" /><rect fill="none" height="21.62162162162162" stroke="black" width="21.62162162162162" x="497.945945945946" y="301.08108108108104" /><text fill="black" font-family="Helvetica" font-size="15.135135135135133" style="baseline-shift:-33%" x="499.4670270270271" y="311.8918918918919">21</text><rect fill="none" height="86.48648648648648" stroke="black" width="76.05405405405405" x="41.62162162162162" y="387.5675675675675" /><text fill="black" font-family="Helvetica" font-size="15.135135135135133" style="baseline-shift:-33%;text-anchor:end" x="35.5372972972973" y="430.8108108108107">5</text><rect fill="none" height="21.62162162162162" stroke="black" width="21.62162162162162" x="41.62162162162162" y="387.5675675675675" /><text fill="black" font-family="Helvetica" font-size="15.135135135135133" style="baseline-shift:-33%" x="43.1427027027027" y="398.37837837837833">22</text><rect fill="none" height="86.48648648648648" stroke="black" width="76.05405405405405" x="117.67567567567568" y="387.5675675675675" /><rect fill="none" height="21.62162162162162" stroke="black" width="21.62162162162162" x="117.67567567567568" y="387.5675675675675" /><text fill="black" font-family="Helvetica" font-size="15.135135135135133" style="baseline-shift:-33%" x="119.19675675675676" y="398.37837837837833">23</text><rect fill="none" height="86.48648648648648" stroke="black" width="76.05405405405405" x="193.72972972972974" y="387.5675675675675" /><rect fill="none" height="21.62162162162162" stroke="black" width="21.62162162162162" x="193.72972972972974" y="387.5675675675675" /><text fill="black" font-family="Helvetica" font-size="15.135135135135133" style="baseline-shift:-33%" x="195.25081081081083" y="398.37837837837833">24</text><rect fill="none" height="86.48648648648648" stroke="black" width="76.05405405405405" x="269.7837837837838" y="387.5675675675675" /><rect fill="none" height="21.62162162162162" stroke="black" width="21.62162162162162" x="269.7837837837838" y="387.5675675675675" /><text fill="black" font-family="Helvetica" font-size="15.135135135135133" style="baseline-shift:-33%" x="271.3048648648649" y="398.37837837837833">25</text><rect fill="none" height="86.48648648648648" stroke="black" width="76.05405405405405" x="345.83783783783787" y="387.5675675675675" /><rect fill="none" height="21.62162162162162" stroke="black" width="21.62162162162162" x="345.83783783783787" y="387.5675675675675" /><text fill="black" font-family="Helvetica" font-size="15.135135135135133" style="baseline-shift:-33%" x="347.35891891891896" y="398.37837837837833">26</text><rect fill="none" height="86.48648648648648" stroke="black" width="76.05405405405405" x="421.89189189189193" y="387.5675675675675" /><rect fill="none" height="21.62162162162162" stroke="black" width="21.62162162162162" x="421.89189189189193" y="387.5675675675675" /><text fill="black" font-family="Helvetica" font-size="15.135135135135133" style="baseline-shift:-33%" x="423.412972972973" y="398.37837837837833">27</text><rect fill="none" height="86.48648648648648" stroke="black" width="76.05405405405405" x="497.945945945946" y="387.5675675675675" /><rect fill="none" height="21.62162162162162" stroke="black" width="21.62162162162162" x="497.945945945946" y="387.5675675675675" /><text fill="black" font-family="Helvetica" font-size="15.135135135135133" style="baseline-shift:-33%" x="499.4670270270271" y="398.37837837837833">28</text><rect fill="none" height="86.48648648648648" stroke="black" width="76.05405405405405" x="41.62162162162162" y="474.05405405405395" /><text fill="black" font-family="Helvetica" font-size="15.135135135135133" style="baseline-shift:-33%;text-anchor:end" x="35.5372972972973" y="517.2972972972972">6</text><rect fill="none" height="21.62162162162162" stroke="black" width="21.62162162162162" x="41.62162162162162" y="474.05405405405395" /><text fill="black" font-family="Helvetica" font-size="15.135135135135133" style="baseline-shift:-33%" x="43.1427027027027" y="484.8648648648648">29</text><rect fill="none" height="86.48648648648648" stroke="black" width="76.05405405405405" x="117.67567567567568" y="474.05405405405395" /><rect fill="none" height="21.62162162162162" stroke="black" width="21.62162162162162" x="117.67567567567568" y="474.05405405405395" /><text fill="black" font-family="Helvetica" font-size="15.135135135135133" style="baseline-shift:-33%" x="119.19675675675676" y="484.8648648648648">30</text><rect fill="none" height="86.48648648648648" stroke="black" width="76.05405405405405" x="193.72972972972974" y="474.05405405405395" /><rect fill="none" height="21.62162162162162" stroke="black" width="21.62162162162162" x="193.72972972972974" y="474.05405405405395" /><text fill="black" font-family="Helvetica" font-size="15.135135135135133" style="baseline-shift:-33%" x="195.25081081081083" y="484.8648648648648">31</text><rect fill="none" height="86.48648648648648" stroke="black" width="76.05405405405405" x="269.7837837837838" y="474.05405405405395" /><rect fill="none" height="21.62162162162162" stroke="black" width="50.7027027027027" x="269.7837837837838" y="474.05405405405395" /><text fill="black" font-family="Helvetica" font-size="15.135135135135133" style="baseline-shift:-33%" x="271.3048648648649" y="484.8648648648648">1 Sep</text><rect fill="none" height="86.48648648648648" stroke="black" width="76.05405405405405" x="345.83783783783787" y="474.05405405405395" /><rect fill="none" height="21.62162162162162" stroke="black" width="21.62162162162162" x="345.83783783783787" y="474.05405405405395" /><text fill="black" font-family="Helvetica" font-size="15.135135135135133" style="baseline-shift:-33%" x="350.4010810810811" y="484.8648648648648">2</text><rect fill="none" height="86.48648648648648" stroke="black" width="76.05405405405405" x="421.89189189189193" y="474.05405405405395" /><rect fill="none" height="21.62162162162162" stroke="black" width="21.62162162162162" x="421.89189189189193" y="474.05405405405395" /><text fill="black" font-family="Helvetica" font-size="15.135135135135133" style="baseline-shift:-33%" x="426.45513513513515" y="484.8648648648648">3</text><rect fill="none" height="86.48648648648648" stroke="black" width="76.05405405405405" x="497.945945945946" y="474.05405405405395" /><rect fill="none" height="21.62162162162162" stroke="black" width="21.62162162162162" x="497.945945945946" y="474.05405405405395" /><text fill="black" font-family="Helvetica" font-size="15.135135135135133" style="baseline-shift:-33%" x="502.5091891891892" y="484.8648648648648">4</text><rect fill="none" height="86.48648648648648" stroke="black" width="76.05405405405405" x="41.62162162162162" y="560.5405405405404" /><text fill="black" font-family="Helvetica" font-size="15.135135135135133" style="baseline-shift:-33%;text-anchor:end" x="35.5372972972973" y="603.7837837837836">7</text><rect fill="none" height="21.62162162162162" stroke="black" width="21.62162162162162" x="41.62162162162162" y="560.5405405405404" /><text fill="black" font-family="Helvetica" font-size="15.135135135135133" style="baseline-shift:-33%" x="46.18486486486486" y="571.3513513513512">5</text><rect fill="none" height="86.48648648648648" stroke="black" width="76.05405405405405" x="117.67567567567568" y="560.5405405405404" /><rect fill="none" height="21.62162162162162" stroke="black" width="21.62162162162162" x="117.67567567567568" y="560.5405405405404" /><text fill="black" font-family="Helvetica" font-size="15.135135135135133" style="baseline-shift:-33%" x="122.23891891891893" y="571.3513513513512">6</text><rect fill="none" height="86.48648648648648" stroke="black" width="76.05405405405405" x="193.72972972972974" y="560.5405405405404" /><rect fill="none" height="21.62162162162162" stroke="black" width="21.62162162162162" x="193.72972972972974" y="560.5405405405404" /><text fill="black" font-family="Helvetica" font-size="15.135135135135133" style="baseline-shift:-33%" x="198.292972972973" y="571.3513513513512">7</text><rect fill="none" height="86.48648648648648" stroke="black" width="76.05405405405405" x="269.7837837837838" y="560.5405405405404" /><rect fill="none" height="21.62162162162162" stroke="black" width="21.62162162162162" x="269.7837837837838" y="560.5405405405404" /><text fill="black" font-family="Helvetica" font-size="15.135135135135133" style="baseline-shift:-33%" x="274.347027027027" y="571.3513513513512">8</text><rect fill="none" height="86.48648648648648" stroke="black" width="76.05405405405405" x="345.83783783783787" y="560.5405405405404" /><rect fill="none" height="21.62162162162162" stroke="black" width="21.62162162162162" x="345.83783783783787" y="560.5405405405404" /><text fill="black" font-family="Helvetica" font-size="15.135135135135133" style="baseline-shift:-33%" x="350.4010810810811" y="571.3513513513512">9</text><rect fill="none" height="86.48648648648648" stroke="black" width="76.05405405405405" x="421.89189189189193" y="560.5405405405404" /><rect fill="none" height="21.62162162162162" stroke="black" width="21.62162162162162" x="421.89189189189193" y="560.5405405405404" /><text fill="black" font-family="Helvetica" font-size="15.135135135135133" style="baseline-shift:-33%" x="423.412972972973" y="571.3513513513512">10</text><rect fill="none" height="86.48648648648648" stroke="black" width="76.05405405405405" x="497.945945945946" y="560.5405405405404" /><rect fill="none" height="21.62162162162162" stroke="black" width="21.62162162162162" x="497.945945945946" y="560.5405405405404" /><text fill="black" font-family="Helvetica" font-size="15.135135135135133" style="baseline-shift:-33%" x="499.4670270270271" y="571.3513513513512">11</text><rect fill="none" height="86.48648648648648" stroke="black" width="76.05405405405405" x="41.62162162162162" y="647.0270270270269" /><rect fill="none" height="21.62162162162162" stroke="black" width="21.62162162162162" x="41.62162162162162" y="647.0270270270269" /><text fill="black" font-family="Helvetica" font-size="15.135135135135133" style="baseline-shift:-33%" x="43.1427027027027" y="657.8378378378377">12</text><rect fill="none" height="86.48648648648648" stroke="black" width="76.05405405405405" x="117.67567567567568" y="647.0270270270269" /><rect fill="none" height="21.62162162162162" stroke="black" width="21.62162162162162" x="117.67567567567568" y="647.0270270270269" /><text fill="black" font-family="Helvetica" font-size="15.135135135135133" style="baseline-shift:-33%" x="119.19675675675676" y="657.8378378378377">13</text><rect fill="none" height="86.48648648648648" stroke="black" width="76.05405405405405" x="193.72972972972974" y="647.0270270270269" /><rect fill="none" height="21.62162162162162" stroke="black" width="21.62162162162162" x="193.72972972972974" y="647.0270270270269" /><text fill="black" font-family="Helvetica" font-size="15.135135135135133" style="baseline-shift:-33%" x="195.25081081081083" y="657.8378378378377">14</text><rect fill="none" height="86.48648648648648" stroke="black" width="76.05405405405405" x="269.7837837837838" y="647.0270270270269" /><rect fill="none" height="21.62162162162162" stroke="black" width="21.62162162162162" x="269.7837837837838" y="647.0270270270269" /><text fill="black" font-family="Helvetica" font-size="15.135135135135133" style="baseline-shift:-33%" x="271.3048648648649" y="657.8378378378377">15</text><rect fill="none" height="86.48648648648648" stroke="black" width="76.05405405405405" x="345.83783783783787" y="647.0270270270269" /><rect fill="none" height="21.62162162162162" stroke="black" width="21.62162162162162" x="345.83783783783787" y="647.0270270270269" /><text fill="black" font-family="Helvetica" font-size="15.135135135135133" style="baseline-shift:-33%" x="347.35891891891896" y="657.8378378378377">16</text><rect fill="none" height="86.48648648648648" stroke="black" width="76.05405405405405" x="421.89189189189193" y="647.0270270270269" /><rect fill="none" height="21.62162162162162" stroke="black" width="21.62162162162162" x="421.89189189189193" y="647.0270270270269" /><text fill="black" font-family="Helvetica" font-size="15.135135135135133" style="baseline-shift:-33%" x="423.412972972973" y="657.8378378378377">17</text><rect fill="none" height="86.48648648648648" stroke="black" width="76.05405405405405" x="497.945945945946" y="647.0270270270269" /><rect fill="none" height="21.62162162162162" stroke="black" width="21.62162162162162" x="497.945945945946" y="647.0270270270269" /><text fill="black" font-family="Helvetica" font-size="15.135135135135133" style="baseline-shift:-33%" x="499.4670270270271" y="657.8378378378377">18</text><rect fill="none" height="86.48648648648648" stroke="black" width="76.05405405405405" x="41.62162162162162" y="733.5135135135133" /><rect fill="none" height="21.62162162162162" stroke="black" width="21.62162162162162" x="41.62162162162162" y="733.5135135135133" /><text fill="black" font-family="Helvetica" font-size="15.135135135135133" style="baseline-shift:-33%" x="43.1427027027027" y="744.3243243243242">19</text><rect fill="none" height="86.48648648648648" stroke="black" width="76.05405405405405" x="117.67567567567568" y="733.5135135135133" /><rect fill="none" height="21.62162162162162" stroke="black" width="21.62162162162162" x="117.67567567567568" y="733.5135135135133" /><text fill="black" font-family="Helvetica" font-size="15.135135135135133" style="baseline-shift:-33%" x="119.19675675675676" y="744.3243243243242">20</text><rect fill="none" height="86.48648648648648" stroke="black" width="76.05405405405405" x="193.72972972972974" y="733.5135135135133" /><rect fill="none" height="21.62162162162162" stroke="black" width="21.62162162162162" x="193.72972972972974" y="733.5135135135133" /><text fill="black" font-family="Helvetica" font-size="15.135135135135133" style="baseline-shift:-33%" x="195.25081081081083" y="744.3243243243242">21</text><rect fill="none" height="86.48648648648648" stroke="black" width="76.05405405405405" x="269.7837837837838" y="733.5135135135133" /><rect fill="none" height="21.62162162162162" stroke="black" width="21.62162162162162" x="269.7837837837838" y="733.5135135135133" /><text fill="black" font-family="Helvetica" font-size="15.135135135135133" style="baseline-shift:-33%" x="271.3048648648649" y="744.3243243243242">22</text><rect fill="none" height="86.48648648648648" stroke="black" width="76.05405405405405" x="345.83783783783787" y="733.5135135135133" /><rect fill="none" height="21.62162162162162" stroke="black" width="21.62162162162162" x="345.83783783783787" y="733.5135135135133" /><text fill="black" font-family="Helvetica" font-size="15.135135135135133" style="baseline-shift:-33%" x="347.35891891891896" y="744.3243243243242">23</text><rect fill="none" height="86.48648648648648" stroke="black" width="76.05405405405405" x="421.89189189189193" y="733.5135135135133" /><rect fill="none" height="21.62162162162162" stroke="black" width="21.62162162162162" x="421.89189189189193" y="733.5135135135133" /><text fill="black" font-family="Helvetica" font-size="15.135135135135133" style="baseline-shift:-33%" x="423.412972972973" y="744.3243243243242">24</text><rect fill="none" height="86.48648648648648" stroke="black" width="76.05405405405405" x="497.945945945946" y="733.5135135135133" /><rect fill="none" height="21.62162162162162" stroke="black" width="21.62162162162162" x="497.945945945946" y="733.5135135135133" /><text fill="black" font-family="Helvetica" font-size="15.135135135135133" style="baseline-shift:-33%" x="499.4670270270271" y="744.3243243243242">25</text><line stroke="lightgrey" x1="614.0" x2="1146.3783783783783" y1="41.62162162162162" y2="41.62162162162162" /><line stroke="lightgrey" x1="614.0" x2="1146.3783783783783" y1="63.24324324324324" y2="63.24324324324324" /><line stroke="lightgrey" x1="614.0" x2="1146.3783783783783" y1="84.86486486486487" y2="84.86486486486487" /><line stroke="lightgrey" x1="614.0" x2="1146.3783783783783" y1="106.48648648648648" y2="106.48648648648648" /><line stroke="lightgrey" x1="614.0" x2="1146.3783783783783" y1="128.1081081081081" y2="128.1081081081081" /><line stroke="lightgrey" x1="614.0" x2="1146.3783783783783" y1="149.7297297297297" y2="149.7297297297297" /><line stroke="lightgrey" x1="614.0" x2="1146.3783783783783" y1="171.35135135135133" y2="171.35135135135133" /><line stroke="lightgrey" x1="614.0" x2="1146.3783783783783" y1="192.97297297297294" y2="192.97297297297294" /><line stroke="lightgrey" x1="614.0" x2="1146.3783783783783" y1="214.59459459459455" y2="214.59459459459455" /><line stroke="lightgrey" x1="614.0" x2="1146.3783783783783" y1="236.21621621621617" y2="236.21621621621617" /><line stroke="lightgrey" x1="614.0" x2="1146.3783783783783" y1="257.8378378378378" y2="257.8378378378378" /><line stroke="lightgrey" x1="614.0" x2="1146.3783783783783" y1="279.4594594594594" y2="279.4594594594594" /><line stroke="lightgrey" x1="614.0" x2="1146.3783783783783" y1="301.08108108108104" y2="301.08108108108104" /><line stroke="lightgrey" x1="614.0" x2="1146.3783783783783" y1="322.70270270270265" y2="322.70270270270265" /><line stroke="lightgrey" x1="614.0" x2="1146.3783783783783" y1="344.32432432432427" y2="344.32432432432427" /><line stroke="lightgrey" x1="614.0" x2="1146.3783783783783" y1="365.9459459459459" y2="365.9459459459459" /><line stroke="lightgrey" x1="614.0" x2="1146.3783783783783" y1="387.5675675675675" y2="387.5675675675675" /><line stroke="lightgrey" x1="614.0" x2="1146.3783783783783" y1="409.1891891891891" y2="409.1891891891891" /><line stroke="lightgrey" x1="614.0" x2="1146.3783783783783" y1="430.8108108108107" y2="430.8108108108107" /><line stroke="lightgrey" x1="614.0" x2="1146.3783783783783" y1="452.43243243243234" y2="452.43243243243234" /><line stroke="lightgrey" x1="614.0" x2="1146.3783783783783" y1="474.05405405405395" y2="474.05405405405395" /><line stroke="lightgrey" x1="614.0" x2="1146.3783783783783" y1="495.67567567567556" y2="495.67567567567556" /><line stroke="lightgrey" x1="614.0" x2="1146.3783783783783" y1="517.2972972972972" y2="517.2972972972972" /><line stroke="lightgrey" x1="614.0" x2="1146.3783783783783" y1="538.9189189189188" y2="538.9189189189188" /><line stroke="lightgrey" x1="614.0" x2="1146.3783783783783" y1="560.5405405405405" y2="560.5405405405405" /><line stroke="lightgrey" x1="614.0" x2="1146.3783783783783" y1="582.1621621621622" y2="582.1621621621622" /><line stroke="lightgrey" x1="614.0" x2="1146.3783783783783" y1="603.7837837837839" y2="603.7837837837839" /><line stroke="lightgrey" x1="614.0" x2="1146.3783783783783" y1="625.4054054054055" y2="625.4054054054055" /><line stroke="lightgrey" x1="614.0" x2="1146.3783783783783" y1="647.0270270270272" y2="647.0270270270272" /><line stroke="lightgrey" x1="614.0" x2="1146.3783783783783" y1="668.6486486486489" y2="668.6486486486489" /><line stroke="lightgrey" x1="614.0" x2="1146.3783783783783" y1="690.2702702702705" y2="690.2702702702705" /><line stroke="lightgrey" x1="614.0" x2="1146.3783783783783" y1="711.8918918918922" y2="711.8918918918922" /><line stroke="lightgrey" x1="614.0" x2="1146.3783783783783" y1="733.5135135135139" y2="733.5135135135139" /><line stroke="lightgrey" x1="614.0" x2="1146.3783783783783" y1="755.1351351351356" y2="755.1351351351356" /><line stroke="lightgrey" x1="614.0" x2="1146.3783783783783" y1="776.7567567567572" y2="776.7567567567572" /><line stroke="lightgrey" x1="614.0" x2="1146.3783783783783" y1="798.3783783783789" y2="798.3783783783789" /><line stroke="lightgrey" x1="614.0" x2="1146.3783783783783" y1="820.0000000000006" y2="820.0000000000006" /><rect fill="none" height="86.48648648648648" stroke="black" width="76.05405405405405" x="614.0" y="41.62162162162162" /><text fill="black" font-family="Helvetica" font-size="15.135135135135133" style="baseline-shift:-33%;text-anchor:end" x="607.9156756756756" y="84.86486486486487">8</text><text fill="black" font-family="Helvetica" font-size="15.135135135135133" style="baseline-shift-33%;text-anchor:middle" x="652.027027027027" y="30.81081081081081">Sun</text><rect fill="none" height="21.62162162162162" stroke="black" width="21.62162162162162" x="614.0" y="41.62162162162162" /><text fill="black" font-family="Helvetica" font-size="15.135135135135133" style="baseline-shift:-33%" x="615.5210810810811" y="52.432432432432435">26</text><rect fill="none" height="86.48648648648648" stroke="black" width="76.05405405405405" x="690.0540540540541" y="41.62162162162162" /><text fill="black" font-family="Helvetica" font-size="15.135135135135133" style="baseline-shift-33%;text-anchor:middle" x="728.081081081081" y="30.81081081081081">Mon</text><rect fill="none" height="21.62162162162162" stroke="black" width="21.62162162162162" x="690.0540540540541" y="41.62162162162162" /><text fill="black" font-family="Helvetica" font-size="15.135135135135133" style="baseline-shift:-33%" x="691.5751351351352" y="52.432432432432435">27</text><rect fill="none" height="86.48648648648648" stroke="black" width="76.05405405405405" x="766.1081081081081" y="41.62162162162162" /><text fill="black" font-family="Helvetica" font-size="15.135135135135133" style="baseline-shift-33%;text-anchor:middle" x="804.1351351351351" y="30.81081081081081">Tue</text><rect fill="none" height="21.62162162162162" stroke="black" width="21.62162162162162" x="766.1081081081081" y="41.62162162162162" /><text fill="black" font-family="Helvetica" font-size="15.135135135135133" style="baseline-shift:-33%" x="767.6291891891892" y="52.432432432432435">28</text><rect fill="none" height="86.48648648648648" stroke="black" width="76.05405405405405" x="842.1621621621622" y="41.62162162162162" /><text fill="black" font-family="Helvetica" font-size="15.135135135135133" style="baseline-shift-33%;text-anchor:middle" x="880.1891891891892" y="30.81081081081081">Wed</text><rect fill="none" height="21.62162162162162" stroke="black" width="21.62162162162162" x="842.1621621621622" y="41.62162162162162" /><text fill="black" font-family="Helvetica" font-size="15.135135135135133" style="baseline-shift:-33%" x="843.6832432432433" y="52.432432432432435">29</text><rect fill="none" height="86.48648648648648" stroke="black" width="76.05405405405405" x="918.2162162162163" y="41.62162162162162" /><text fill="black" font-family="Helvetica" font-size="15.135135135135133" style="baseline-shift-33%;text-anchor:middle" x="956.2432432432432" y="30.81081081081081">Thu</text><rect fill="none" height="21.62162162162162" stroke="black" width="21.62162162162162" x="918.2162162162163" y="41.62162162162162" /><text fill="black" font-family="Helvetica" font-size="15.135135135135133" style="baseline-shift:-33%" x="919.7372972972973" y="52.432432432432435">30</text><rect fill="none" height="86.48648648648648" stroke="black" width="76.05405405405405" x="994.2702702702703" y="41.62162162162162" /><text fill="black" font-family="Helvetica" font-size="15.135135135135133" style="baseline-shift-33%;text-anchor:middle" x="1032.2972972972973" y="30.81081081081081">Fri</text><rect fill="none" height="21.62162162162162" stroke="black" width="50.7027027027027" x="994.2702702702703" y="41.62162162162162" /><text fill="black" font-family="Helvetica" font-size="15.135135135135133" style="baseline-shift:-33%" x="995.7913513513514" y="52.432432432432435">1 Oct</text><rect fill="none" height="86.48648648648648" stroke="black" width="76.05405405405405" x="1070.3243243243244" y="41.62162162162162" /><text fill="black" font-family="Helvetica" font-size="15.135135135135133" style="baseline-shift-33%;text-anchor:middle" x="1108.3513513513515" y="30.81081081081081">Sat</text><rect fill="none" height="21.62162162162162" stroke="black" width="21.62162162162162" x="1070.3243243243244" y="41.62162162162162" /><text fill="black" font-family="Helvetica" font-size="15.135135135135133" style="baseline-shift:-33%" x="1074.8875675675677" y="52.432432432432435">2</text><rect fill="none" height="86.48648648648648" stroke="black" width="76.05405405405405" x="614.0" y="128.1081081081081" /><text fill="black" font-family="Helvetica" font-size="15.135135135135133" style="baseline-shift:-33%;text-anchor:end" x="607.9156756756756" y="171.35135135135135">9</text><rect fill="none" height="21.62162162162162" stroke="black" width="21.62162162162162" x="614.0" y="128.1081081081081" /><text fill="black" font-family="Helvetica" font-size="15.135135135135133" style="baseline-shift:-33%" x="618.5632432432433" y="138.9189189189189">3</text><rect fill="none" height="86.48648648648648" stroke="black" width="76.05405405405405" x="690.0540540540541" y="128.1081081081081" /><rect fill="none" height="21.62162162162162" stroke="black" width="21.62162162162162" x="690.0540540540541" y="128.1081081081081" /><text fill="black" font-family="Helvetica" font-size="15.135135135135133" style="baseline-shift:-33%" x="694.6172972972973" y="138.9189189189189">4</text><rect fill="none" height="86.48648648648648" stroke="black" width="76.05405405405405" x="766.1081081081081" y="128.1081081081081" /><rect fill="none" height="21.62162162162162" stroke="black" width="21.62162162162162" x="766.1081081081081" y="128.1081081081081" /><text fill="black" font-family="Helvetica" font-size="15.135135135135133" style="baseline-shift:-33%" x="770.6713513513514" y="138.9189189189189">5</text><rect fill="none" height="86.48648648648648" stroke="black" width="76.05405405405405" x="842.1621621621622" y="128.1081081081081" /><rect fill="none" height="21.62162162162162" stroke="black" width="21.62162162162162" x="842.1621621621622" y="128.1081081081081" /><text fill="black" font-family="Helvetica" font-size="15.135135135135133" style="baseline-shift:-33%" x="846.7254054054055" y="138.9189189189189">6</text><rect fill="none" height="86.48648648648648" stroke="black" width="76.05405405405405" x="918.2162162162163" y="128.1081081081081" /><rect fill="none" height="21.62162162162162" stroke="black" width="21.62162162162162" x="918.2162162162163" y="128.1081081081081" /><text fill="black" font-family="Helvetica" font-size="15.135135135135133" style="baseline-shift:-33%" x="922.7794594594595" y="138.9189189189189">7</text><rect fill="none" height="86.48648648648648" stroke="black" width="76.05405405405405" x="994.2702702702703" y="128.1081081081081" /><rect fill="none" height="21.62162162162162" stroke="black" width="21.62162162162162" x="994.2702702702703" y="128.1081081081081" /><text fill="black" font-family="Helvetica" font-size="15.135135135135133" style="baseline-shift:-33%" x="998.8335135135136" y="138.9189189189189">8</text><rect fill="none" height="86.48648648648648" stroke="black" width="76.05405405405405" x="1070.3243243243244" y="128.1081081081081" /><rect fill="none" height="21.62162162162162" stroke="black" width="21.62162162162162" x="1070.3243243243244" y="128.1081081081081" /><text fill="black" font-family="Helvetica" font-size="15.135135135135133" style="baseline-shift:-33%" x="1074.8875675675677" y="138.9189189189189">9</text><rect fill="none" height="86.48648648648648" stroke="black" width="76.05405405405405" x="614.0" y="214.59459459459458" /><text fill="black" font-family="Helvetica" font-size="15.135135135135133" style="baseline-shift:-33%;text-anchor:end" x="607.9156756756756" y="257.8378378378378">10</text><rect fill="none" height="21.62162162162162" stroke="black" width="21.62162162162162" x="614.0" y="214.59459459459458" /><text fill="black" font-family="Helvetica" font-size="15.135135135135133" style="baseline-shift:-33%" x="615.5210810810811" y="225.4054054054054">10</text><rect fill="none" height="86.48648648648648" stroke="black" width="76.05405405405405" x="690.0540540540541" y="214.59459459459458" /><rect fill="none" height="21.62162162162162" stroke="black" width="21.62162162162162" x="690.0540540540541" y="214.59459459459458" /><text fill="black" font-family="Helvetica" font-size="15.135135135135133" style="baseline-shift:-33%" x="691.5751351351352" y="225.4054054054054">11</text><rect fill="none" height="86.48648648648648" stroke="black" width="76.05405405405405" x="766.1081081081081" y="214.59459459459458" /><rect fill="none" height="21.62162162162162" stroke="black" width="21.62162162162162" x="766.1081081081081" y="214.59459459459458" /><text fill="black" font-family="Helvetica" font-size="15.135135135135133" style="baseline-shift:-33%" x="767.6291891891892" y="225.4054054054054">12</text><rect fill="none" height="86.48648648648648" stroke="black" width="76.05405405405405" x="842.1621621621622" y="214.59459459459458" /><rect fill="none" height="21.62162162162162" stroke="black" width="21.62162162162162" x="842.1621621621622" y="214.59459459459458" /><text fill="black" font-family="Helvetica" font-size="15.135135135135133" style="baseline-shift:-33%" x="843.6832432432433" y="225.4054054054054">13</text><rect fill="none" height="86.48648648648648" stroke="black" width="76.05405405405405" x="918.2162162162163" y="214.59459459459458" /><rect fill="none" height="21.62162162162162" stroke="black" width="21.62162162162162" x="918.2162162162163" y="214.59459459459458" /><text fill="black" font-family="Helvetica" font-size="15.135135135135133" style="baseline-shift:-33%" x="919.7372972972973" y="225.4054054054054">14</text><rect fill="none" height="86.48648648648648" stroke="black" width="76.05405405405405" x="994.2702702702703" y="214.59459459459458" /><rect fill="none" height="21.62162162162162" stroke="black" width="21.62162162162162" x="994.2702702702703" y="214.59459459459458" /><text fill="black" font-family="Helvetica" font-size="15.135135135135133" style="baseline-shift:-33%" x="995.7913513513514" y="225.4054054054054">15</text><rect fill="none" height="86.48648648648648" stroke="black" width="76.05405405405405" x="1070.3243243243244" y="214.59459459459458" /><rect fill="none" height="21.62162162162162" stroke="black" width="21.62162162162162" x="1070.3243243243244" y="214.59459459459458" /><text fill="black" font-family="Helvetica" font-size="15.135135135135133" style="baseline-shift:-33%" x="1071.8454054054055" y="225.4054054054054">16</text><rect fill="none" height="86.48648648648648" stroke="black" width="76.05405405405405" x="614.0" y="301.08108108108104" /><text fill="black" font-family="Helvetica" font-size="15.135135135135133" style="baseline-shift:-33%;text-anchor:end" x="607.9156756756756" y="344.32432432432427">11</text><rect fill="none" height="21.62162162162162" stroke="black" width="21.62162162162162" x="614.0" y="301.08108108108104" /><text fill="black" font-family="Helvetica" font-size="15.135135135135133" style="baseline-shift:-33%" x="615.5210810810811" y="311.8918918918919">17</text><rect fill="none" height="86.48648648648648" stroke="black" width="76.05405405405405" x="690.0540540540541" y="301.08108108108104" /><rect fill="none" height="21.62162162162162" stroke="black" width="21.62162162162162" x="690.0540540540541" y="301.08108108108104" /><text fill="black" font-family="Helvetica" font-size="15.135135135135133" style="baseline-shift:-33%" x="691.5751351351352" y="311.8918918918919">18</text><rect fill="none" height="86.48648648648648" stroke="black" width="76.05405405405405" x="766.1081081081081" y="301.08108108108104" /><rect fill="none" height="21.62162162162162" stroke="black" width="21.62162162162162" x="766.1081081081081" y="301.08108108108104" /><text fill="black" font-family="Helvetica" font-size="15.135135135135133" style="baseline-shift:-33%" x="767.6291891891892" y="311.8918918918919">19</text><rect fill="none" height="86.48648648648648" stroke="black" width="76.05405405405405" x="842.1621621621622" y="301.08108108108104" /><rect fill="none" height="21.62162162162162" stroke="black" width="21.62162162162162" x="842.1621621621622" y="301.08108108108104" /><text fill="black" font-family="Helvetica" font-size="15.135135135135133" style="baseline-shift:-33%" x="843.6832432432433" y="311.8918918918919">20</text><rect fill="none" height="86.48648648648648" stroke="black" width="76.05405405405405" x="918.2162162162163" y="301.08108108108104" /><rect fill="none" height="21.62162162162162" stroke="black" width="21.62162162162162" x="918.2162162162163" y="301.08108108108104" /><text fill="black" font-family="Helvetica" font-size="15.135135135135133" style="baseline-shift:-33%" x="919.7372972972973" y="311.8918918918919">21</text><rect fill="none" height="86.48648648648648" stroke="black" width="76.05405405405405" x="994.2702702702703" y="301.08108108108104" /><rect fill="none" height="21.62162162162162" stroke="black" width="21.62162162162162" x="994.2702702702703" y="301.08108108108104" /><text fill="black" font-family="Helvetica" font-size="15.135135135135133" style="baseline-shift:-33%" x="995.7913513513514" y="311.8918918918919">22</text><rect fill="none" height="86.48648648648648" stroke="black" width="76.05405405405405" x="1070.3243243243244" y="301.08108108108104" /><rect fill="none" height="21.62162162162162" stroke="black" width="21.62162162162162" x="1070.3243243243244" y="301.08108108108104" /><text fill="black" font-family="Helvetica" font-size="15.135135135135133" style="baseline-shift:-33%" x="1071.8454054054055" y="311.8918918918919">23</text><rect fill="none" height="86.48648648648648" stroke="black" width="76.05405405405405" x="614.0" y="387.5675675675675" /><text fill="black" font-family="Helvetica" font-size="15.135135135135133" style="baseline-shift:-33%;text-anchor:end" x="607.9156756756756" y="430.8108108108107">12</text><rect fill="none" height="21.62162162162162" stroke="black" width="21.62162162162162" x="614.0" y="387.5675675675675" /><text fill="black" font-family="Helvetica" font-size="15.135135135135133" style="baseline-shift:-33%" x="615.5210810810811" y="398.37837837837833">24</text><rect fill="none" height="86.48648648648648" stroke="black" width="76.05405405405405" x="690.0540540540541" y="387.5675675675675" /><rect fill="none" height="21.62162162162162" stroke="black" width="21.62162162162162" x="690.0540540540541" y="387.5675675675675" /><text fill="black" font-family="Helvetica" font-size="15.135135135135133" style="baseline-shift:-33%" x="691.5751351351352" y="398.37837837837833">25</text><rect fill="none" height="86.48648648648648" stroke="black" width="76.05405405405405" x="766.1081081081081" y="387.5675675675675" /><rect fill="none" height="21.62162162162162" stroke="black" width="21.62162162162162" x="766.1081081081081" y="387.5675675675675" /><text fill="black" font-family="Helvetica" font-size="15.135135135135133" style="baseline-shift:-33%" x="767.6291891891892" y="398.37837837837833">26</text><rect fill="none" height="86.48648648648648" stroke="black" width="76.05405405405405" x="842.1621621621622" y="387.5675675675675" /><rect fill="none" height="21.62162162162162" stroke="black" width="21.62162162162162" x="842.1621621621622" y="387.5675675675675" /><text fill="black" font-family="Helvetica" font-size="15.135135135135133" style="baseline-shift:-33%" x="843.6832432432433" y="398.37837837837833">27</text><rect fill="none" height="86.48648648648648" stroke="black" width="76.05405405405405" x="918.2162162162163" y="387.5675675675675" /><rect fill="none" height="21.62162162162162" stroke="black" width="21.62162162162162" x="918.2162162162163" y="387.5675675675675" /><text fill="black" font-family="Helvetica" font-size="15.135135135135133" style="baseline-shift:-33%" x="919.7372972972973" y="398.37837837837833">28</text><rect fill="none" height="86.48648648648648" stroke="black" width="76.05405405405405" x="994.2702702702703" y="387.5675675675675" /><rect fill="none" height="21.62162162162162" stroke="black" width="21.62162162162162" x="994.2702702702703" y="387.5675675675675" /><text fill="black" font-family="Helvetica" font-size="15.135135135135133" style="baseline-shift:-33%" x="995.7913513513514" y="398.37837837837833">29</text><rect fill="none" height="86.48648648648648" stroke="black" width="76.05405405405405" x="1070.3243243243244" y="387.5675675675675" /><rect fill="none" height="21.62162162162162" stroke="black" width="21.62162162162162" x="1070.3243243243244" y="387.5675675675675" /><text fill="black" font-family="Helvetica" font-size="15.135135135135133" style="baseline-shift:-33%" x="1071.8454054054055" y="398.37837837837833">30</text><rect fill="none" height="86.48648648648648" stroke="black" width="76.05405405405405" x="614.0" y="474.05405405405395" /><text fill="black" font-family="Helvetica" font-size="15.135135135135133" style="baseline-shift:-33%;text-anchor:end" x="607.9156756756756" y="517.2972972972972">13</text><rect fill="none" height="21.62162162162162" stroke="black" width="21.62162162162162" x="614.0" y="474.05405405405395" /><text fill="black" font-family="Helvetica" font-size="15.135135135135133" style="baseline-shift:-33%" x="615.5210810810811" y="484.8648648648648">31</text><rect fill="none" height="86.48648648648648" stroke="black" width="76.05405405405405" x="690.0540540540541" y="474.05405405405395" /><rect fill="none" height="21.62162162162162" stroke="black" width="50.7027027027027" x="690.0540540540541" y="474.05405405405395" /><text fill="black" font-family="Helvetica" font-size="15.135135135135133" style="baseline-shift:-33%" x="691.5751351351352" y="484.8648648648648">1 Nov</text><rect fill="none" height="86.48648648648648" stroke="black" width="76.05405405405405" x="766.1081081081081" y="474.05405405405395" /><rect fill="none" height="21.62162162162162" stroke="black" width="21.62162162162162" x="766.1081081081081" y="474.05405405405395" /><text fill="black" font-family="Helvetica" font-size="15.135135135135133" style="baseline-shift:-33%" x="770.6713513513514" y="484.8648648648648">2</text><rect fill="none" height="86.48648648648648" stroke="black" width="76.05405405405405" x="842.1621621621622" y="474.05405405405395" /><rect fill="none" height="21.62162162162162" stroke="black" width="21.62162162162162" x="842.1621621621622" y="474.05405405405395" /><text fill="black" font-family="Helvetica" font-size="15.135135135135133" style="baseline-shift:-33%" x="846.7254054054055" y="484.8648648648648">3</text><rect fill="none" height="86.48648648648648" stroke="black" width="76.05405405405405" x="918.2162162162163" y="474.05405405405395" /><rect fill="none" height="21.62162162162162" stroke="black" width="21.62162162162162" x="918.2162162162163" y="474.05405405405395" /><text fill="black" font-family="Helvetica" font-size="15.135135135135133" style="baseline-shift:-33%" x="922.7794594594595" y="484.8648648648648">4</text><rect fill="none" height="86.48648648648648" stroke="black" width="76.05405405405405" x="994.2702702702703" y="474.05405405405395" /><rect fill="none" height="21.62162162162162" stroke="black" width="21.62162162162162" x="994.2702702702703" y="474.05405405405395" /><text fill="black" font-family="Helvetica" font-size="15.135135135135133" style="baseline-shift:-33%" x="998.8335135135136" y="484.8648648648648">5</text><rect fill="none" height="86.48648648648648" stroke="black" width="76.05405405405405" x="1070.3243243243244" y="474.05405405405395" /><rect fill="none" height="21.62162162162162" stroke="black" width="21.62162162162162" x="1070.3243243243244" y="474.05405405405395" /><text fill="black" font-family="Helvetica" font-size="15.135135135135133" style="baseline-shift:-33%" x="1074.8875675675677" y="484.8648648648648">6</text><rect fill="none" height="86.48648648648648" stroke="black" width="76.05405405405405" x="614.0" y="560.5405405405404" /><text fill="black" font-family="Helvetica" font-size="15.135135135135133" style="baseline-shift:-33%;text-anchor:end" x="607.9156756756756" y="603.7837837837836">14</text><rect fill="none" height="21.62162162162162" stroke="black" width="21.62162162162162" x="614.0" y="560.5405405405404" /><text fill="black" font-family="Helvetica" font-size="15.135135135135133" style="baseline-shift:-33%" x="618.5632432432433" y="571.3513513513512">7</text><rect fill="none" height="86.48648648648648" stroke="black" width="76.05405405405405" x="690.0540540540541" y="560.5405405405404" /><rect fill="none" height="21.62162162162162" stroke="black" width="21.62162162162162" x="690.0540540540541" y="560.5405405405404" /><text fill="black" font-family="Helvetica" font-size="15.135135135135133" style="baseline-shift:-33%" x="694.6172972972973" y="571.3513513513512">8</text><rect fill="none" height="86.48648648648648" stroke="black" width="76.05405405405405" x="766.1081081081081" y="560.5405405405404" /><rect fill="none" height="21.62162162162162" stroke="black" width="21.62162162162162" x="766.1081081081081" y="560.5405405405404" /><text fill="black" font-family="Helvetica" font-size="15.135135135135133" style="baseline-shift:-33%" x="770.6713513513514" y="571.3513513513512">9</text><rect fill="none" height="86.48648648648648" stroke="black" width="76.05405405405405" x="842.1621621621622" y="560.5405405405404" /><rect fill="none" height="21.62162162162162" stroke="black" width="21.62162162162162" x="842.1621621621622" y="560.5405405405404" /><text fill="black" font-family="Helvetica" font-size="15.135135135135133" style="baseline-shift:-33%" x="843.6832432432433" y="571.3513513513512">10</text><rect fill="none" height="86.48648648648648" stroke="black" width="76.05405405405405" x="918.2162162162163" y="560.5405405405404" /><rect fill="none" height="21.62162162162162" stroke="black" width="21.62162162162162" x="918.2162162162163" y="560.5405405405404" /><text fill="black" font-family="Helvetica" font-size="15.135135135135133" style="baseline-shift:-33%" x="919.7372972972973" y="571.3513513513512">11</text><rect fill="none" height="86.48648648648648" stroke="black" width="76.05405405405405" x="994.2702702702703" y="560.5405405405404" /><rect fill="none" height="21.62162162162162" stroke="black" width="21.62162162162162" x="994.2702702702703" y="560.5405405405404" /><text fill="black" font-family="Helvetica" font-size="15.135135135135133" style="baseline-shift:-33%" x="995.7913513513514" y="571.3513513513512">12</text><rect fill="none" height="86.48648648648648" stroke="black" width="76.05405405405405" x="1070.3243243243244" y="560.5405405405404" /><rect fill="none" height="21.62162162162162" stroke="black" width="21.62162162162162" x="1070.3243243243244" y="560.5405405405404" /><text fill="black" font-family="Helvetica" font-size="15.135135135135133" style="baseline-shift:-33%" x="1071.8454054054055" y="571.3513513513512">13</text><rect fill="none" height="86.48648648648648" stroke="black" width="76.05405405405405" x="614.0" y="647.0270270270269" /><text fill="black" font-family="Helvetica" font-size="15.135135135135133" style="baseline-shift:-33%;text-anchor:end" x="607.9156756756756" y="690.2702702702701">15</text><rect fill="none" height="21.62162162162162" stroke="black" width="21.62162162162162" x="614.0" y="647.0270270270269" /><text fill="black" font-family="Helvetica" font-size="15.135135135135133" style="baseline-shift:-33%" x="615.5210810810811" y="657.8378378378377">14</text><rect fill="none" height="86.48648648648648" stroke="black" width="76.05405405405405" x="690.0540540540541" y="647.0270270270269" /><rect fill="none" height="21.62162162162162" stroke="black" width="21.62162162162162" x="690.0540540540541" y="647.0270270270269" /><text fill="black" font-family="Helvetica" font-size="15.135135135135133" style="baseline-shift:-33%" x="691.5751351351352" y="657.8378378378377">15</text><rect fill="none" height="86.48648648648648" stroke="black" width="76.05405405405405" x="766.1081081081081" y="647.0270270270269" /><rect fill="none" height="21.62162162162162" stroke="black" width="21.62162162162162" x="766.1081081081081" y="647.0270270270269" /><text fill="black" font-family="Helvetica" font-size="15.135135135135133" style="baseline-shift:-33%" x="767.6291891891892" y="657.8378378378377">16</text><rect fill="none" height="86.48648648648648" stroke="black" width="76.05405405405405" x="842.1621621621622" y="647.0270270270269" /><rect fill="none" height="21.62162162162162" stroke="black" width="21.62162162162162" x="842.1621621621622" y="647.0270270270269" /><text fill="black" font-family="Helvetica" font-size="15.135135135135133" style="baseline-shift:-33%" x="843.6832432432433" y="657.8378378378377">17</text><rect fill="none" height="86.48648648648648" stroke="black" width="76.05405405405405" x="918.2162162162163" y="647.0270270270269" /><rect fill="none" height="21.62162162162162" stroke="black" width="21.62162162162162" x="918.2162162162163" y="647.0270270270269" /><text fill="black" font-family="Helvetica" font-size="15.135135135135133" style="baseline-shift:-33%" x="919.7372972972973" y="657.8378378378377">18</text><rect fill="none" height="86.48648648648648" stroke="black" width="76.05405405405405" x="994.2702702702703" y="647.0270270270269" /><rect fill="none" height="21.62162162162162" stroke="black" width="21.62162162162162" x="994.2702702702703" y="647.0270270270269" /><text fill="black" font-family="Helvetica" font-size="15.135135135135133" style="baseline-shift:-33%" x="995.7913513513514" y="657.8378378378377">19</text><rect fill="none" height="86.48648648648648" stroke="black" width="76.05405405405405" x="1070.3243243243244" y="647.0270270270269" /><rect fill="none" height="21.62162162162162" stroke="black" width="21.62162162162162" x="1070.3243243243244" y="647.0270270270269" /><text fill="black" font-family="Helvetica" font-size="15.135135135135133" style="baseline-shift:-33%" x="1071.8454054054055" y="657.8378378378377">20</text><rect fill="none" height="86.48648648648648" stroke="black" width="76.05405405405405" x="614.0" y="733.5135135135133" /><text fill="black" font-family="Helvetica" font-size="15.135135135135133" style="baseline-shift:-33%;text-anchor:end" x="607.9156756756756" y="776.7567567567565">16</text><rect fill="none" height="21.62162162162162" stroke="black" width="21.62162162162162" x="614.0" y="733.5135135135133" /><text fill="black" font-family="Helvetica" font-size="15.135135135135133" style="baseline-shift:-33%" x="615.5210810810811" y="744.3243243243242">21</text><rect fill="none" height="86.48648648648648" stroke="black" width="76.05405405405405" x="690.0540540540541" y="733.5135135135133" /><rect fill="none" height="21.62162162162162" stroke="black" width="21.62162162162162" x="690.0540540540541" y="733.5135135135133" /><text fill="black" font-family="Helvetica" font-size="15.135135135135133" style="baseline-shift:-33%" x="691.5751351351352" y="744.3243243243242">22</text><rect fill="none" height="86.48648648648648" stroke="black" width="76.05405405405405" x="766.1081081081081" y="733.5135135135133" /><rect fill="none" height="21.62162162162162" stroke="black" width="21.62162162162162" x="766.1081081081081" y="733.5135135135133" /><text fill="black" font-family="Helvetica" font-size="15.135135135135133" style="baseline-shift:-33%" x="767.6291891891892" y="744.3243243243242">23</text><rect fill="none" height="86.48648648648648" stroke="black" width="76.05405405405405" x="842.1621621621622" y="733.5135135135133" /><rect fill="none" height="21.62162162162162" stroke="black" width="21.62162162162162" x="842.1621621621622" y="733.5135135135133" /><text fill="black" font-family="Helvetica" font-size="15.135135135135133" style="baseline-shift:-33%" x="843.6832432432433" y="744.3243243243242">24</text><rect fill="none" height="86.48648648648648" stroke="black" width="76.05405405405405" x="918.2162162162163" y="733.5135135135133" /><rect fill="none" height="21.62162162162162" stroke="black" width="21.62162162162162" x="918.2162162162163" y="733.5135135135133" /><text fill="black" font-family="Helvetica" font-size="15.135135135135133" style="baseline-shift:-33%" x="919.7372972972973" y="744.3243243243242">25</text><rect fill="none" height="86.48648648648648" stroke="black" width="76.05405405405405" x="994.2702702702703" y="733.5135135135133" /><rect fill="none" height="21.62162162162162" stroke="black" width="21.62162162162162" x="994.2702702702703" y="733.5135135135133" /><text fill="black" font-family="Helvetica" font-size="15.135135135135133" style="baseline-shift:-33%" x="995.7913513513514" y="744.3243243243242">26</text><rect fill="none" height="86.48648648648648" stroke="black" width="76.05405405405405" x="1070.3243243243244" y="733.5135135135133" /><rect fill="none" height="21.62162162162162" stroke="black" width="21.62162162162162" x="1070.3243243243244" y="733.5135135135133" /><text fill="black" font-family="Helvetica" font-size="15.135135135135133" style="baseline-shift:-33%" x="1071.8454054054055" y="744.3243243243242">27</text></svg>